<svg width="100" height="70" viewBox="0 0 100 70" fill="none" xmlns="http://www.w3.org/2000/svg">
<path d="M17.1562 33.4617V45.1005C17.1562 47.5156 19.9148 49.4651 23.332 49.4651C26.7493 49.4651 29.5078 47.5156 29.5078 45.1005V33.4617C29.5078 31.0466 26.7493 29.0971 23.332 29.0971C19.9148 29.0971 17.1562 31.0466 17.1562 33.4617ZM41.8594 33.4617V45.1005C41.8594 47.5156 44.6179 49.4651 48.0352 49.4651C51.4524 49.4651 54.2109 47.5156 54.2109 45.1005V33.4617C54.2109 31.0466 51.4524 29.0971 48.0352 29.0971C44.6179 29.0971 41.8594 31.0466 41.8594 33.4617ZM15.0977 64.0137H80.9727C84.3899 64.0137 87.1484 62.0642 87.1484 59.6491C87.1484 57.234 84.3899 55.2845 80.9727 55.2845H15.0977C11.6804 55.2845 8.92188 57.234 8.92188 59.6491C8.92188 62.0642 11.6804 64.0137 15.0977 64.0137ZM66.5625 33.4617V45.1005C66.5625 47.5156 69.321 49.4651 72.7383 49.4651C76.1555 49.4651 78.9141 47.5156 78.9141 45.1005V33.4617C78.9141 31.0466 76.1555 29.0971 72.7383 29.0971C69.321 29.0971 66.5625 31.0466 66.5625 33.4617ZM44.2062 4.33544L11.6804 16.4399C9.99234 17.0509 8.92188 18.3021 8.92188 19.6405C8.92188 21.6482 11.2275 23.2777 14.0684 23.2777H82.0431C84.8428 23.2777 87.1484 21.6482 87.1484 19.6405C87.1484 18.3021 86.078 17.0509 84.3899 16.4399L51.8641 4.33544C49.4762 3.43343 46.5941 3.43343 44.2062 4.33544Z" fill="black"/>
</svg>
