<svg width="143" height="125" viewBox="0 0 143 125" fill="none" xmlns="http://www.w3.org/2000/svg">
<g clip-path="url(#clip0_29_780)">
<path d="M134.465 0H7.90972C3.5413 0 0 3.10913 0 6.94444V118.056C0 121.891 3.5413 125 7.90972 125H134.465C138.834 125 142.375 121.891 142.375 118.056V6.94444C142.375 3.10913 138.834 0 134.465 0Z" fill="#D9D9D9"/>
<path fill-rule="evenodd" clip-rule="evenodd" d="M62.1071 40.816C57.8497 41.085 54.237 44.2621 54.237 48.7482V70.0833C54.2389 70.8542 53.5903 71.5191 52.6511 71.5191H45.1447C28.8922 71.5364 30.3338 53.1024 44.1679 53.0816H52.4652V47.7187H43.8634C38.3542 47.7187 34.2669 49.5434 31.5084 52.2673C28.7499 54.993 27.3676 58.6562 27.3597 62.3125C27.3518 65.9687 28.7162 69.6128 31.538 72.3298C34.3618 75.0486 38.6251 76.8785 44.4744 76.8785H58.6288C59.5622 76.8785 60.3373 76.1649 60.3373 75.3351V49.316C60.3314 47.9757 61.1797 46.941 62.2891 46.6354C63.3964 46.3333 64.6976 46.7187 65.4609 47.6927L65.4925 47.7205C69.5185 53.566 85.5061 76.3264 85.5338 76.3663C85.9727 76.9219 86.4948 77.0208 86.8764 76.908C87.2581 76.7951 87.6417 76.4288 87.6397 75.526V49.3177C87.6338 47.9792 88.4841 46.941 89.5914 46.6371C90.6988 46.3333 91.9703 46.7187 92.7336 47.6927V47.7222H92.7929C96.8209 53.5677 112.81 76.3281 112.836 76.368C113.271 76.9184 113.777 77.0243 114.181 76.9097C114.582 76.7934 114.976 76.4514 114.972 75.5555V40.9531H108.901V61.151C108.901 61.151 105.282 55.6632 99.0792 46.2048C93.0045 36.9427 81.5393 40.7778 81.5393 48.75V61.151C81.5393 61.151 77.98 55.6632 71.7768 46.2048C69.1191 42.1545 65.4174 40.6076 62.1071 40.8177V40.816ZM116.53 40.9496H122.601V76.3125C122.63 85.4097 110.6 86.8403 105.64 79.5625C102.72 75.276 95.2983 64.3455 95.2983 64.3455V76.3125C95.328 85.4097 83.3269 86.8403 78.3675 79.5625L67.9959 64.3455V75.1736C68.0038 80.7048 64.3634 83.7014 58.6605 83.7014H45.3919C11.475 83.6805 11.1507 40.9514 44.9332 40.9514H52.4672V46.3663H43.8594C37.9667 46.375 33.4126 48.342 30.3733 51.342C27.338 54.342 25.8074 58.342 25.7995 62.309C25.7936 65.1979 26.6063 68.0903 28.2515 70.6076L28.301 70.6857C28.908 71.6035 29.6246 72.4619 30.4386 73.2465C32.2007 74.9356 34.3878 76.2399 36.8257 77.0555C39.0463 77.8107 41.5972 78.2361 44.4704 78.2361H58.6308C60.4046 78.2361 61.8698 76.9114 61.8698 75.3333V49.283C61.8659 48.401 62.297 48.0642 62.7557 47.9392C62.9179 47.8951 63.0894 47.8839 63.2573 47.9064C63.4251 47.929 63.5849 47.9847 63.7247 48.0694C63.905 48.1788 64.06 48.3172 64.1815 48.4774C68.249 54.3802 84.2544 77.1232 84.2544 77.1232H84.2781V77.1493C85.0295 78.1024 86.2674 78.526 87.3391 78.2083C87.6892 78.1042 88.0055 77.9219 88.2725 77.6771C88.8262 77.1771 89.1702 76.4149 89.1663 75.526V49.3177C89.1643 48.5746 89.4708 48.2101 89.8406 48.0399C89.9067 48.0105 89.9755 47.9861 90.0462 47.967C90.4872 47.8455 91.0271 47.9566 91.4463 48.4531C91.4502 48.4531 91.4423 48.4826 91.4463 48.4826C91.4522 48.4861 91.4562 48.4861 91.4601 48.4826L91.472 48.4791C91.474 48.4791 91.4779 48.4791 91.4799 48.4826C95.5554 54.401 111.551 77.0937 111.551 77.0937V77.1493H111.584C112.184 77.9062 113.087 78.3073 113.977 78.2847C114.21 78.2795 114.444 78.2448 114.669 78.1805C115.725 77.8732 116.498 76.9253 116.528 75.6458L116.53 75.5486V40.9496Z" fill="#AD2F2F"/>
</g>
<defs>
<clipPath id="clip0_29_780">
<rect width="142.375" height="125" fill="white"/>
</clipPath>
</defs>
</svg>
