<svg width="129" height="100" viewBox="0 0 129 100" fill="none" xmlns="http://www.w3.org/2000/svg">
<g clip-path="url(#clip0_29_751)">
<path fill-rule="evenodd" clip-rule="evenodd" d="M32.1406 0.000183105C37.2122 0.000183105 41.3237 3.18648 41.3237 7.11699V14.2338H87.2399V7.11699C87.2399 3.18648 91.3514 0.000183105 96.4228 0.000183105C101.495 0.000183105 105.606 3.18648 105.606 7.11699V14.2338H114.788C122.395 14.2338 128.562 19.0132 128.562 24.909V88.9603C128.562 94.8559 122.395 99.6355 114.788 99.6355H13.7746C6.16708 99.6355 0 94.8559 0 88.9603V24.909C0 19.0132 6.16708 14.2338 13.7746 14.2338H22.9576V7.11699C22.9576 3.18648 27.069 0.000183105 32.1406 0.000183105ZM78.632 36.1053C78.2012 35.7715 77.6167 35.5839 77.0074 35.5842C76.3981 35.5845 75.8139 35.7724 75.3835 36.1067L37.5236 65.5103C37.1723 65.7832 36.9448 66.1372 36.8754 66.5189L34.4588 79.8159C34.3585 80.3682 34.5977 80.9247 35.1051 81.3197C35.6124 81.7147 36.3293 81.9025 37.0419 81.8271L54.1997 80.0166C54.6969 79.9646 55.1584 79.7867 55.5133 79.512L93.4539 50.1083C94.3502 49.4135 94.3502 48.2869 93.4539 47.5921L78.632 36.1053Z" fill="white"/>
</g>
<defs>
<clipPath id="clip0_29_751">
<rect width="128.562" height="99.6353" fill="white"/>
</clipPath>
</defs>
</svg>
