<svg width="143" height="73" viewBox="0 0 143 73" fill="none" xmlns="http://www.w3.org/2000/svg">
<g clip-path="url(#clip0_29_785)">
<path d="M25.0512 62.1296C24.5241 60.4054 22.4297 59.9462 20.0821 59.7986C12.5054 59.3254 11.1634 63.1487 11.1634 64.7629C11.1634 67.5226 12.3598 69.8068 19.7943 69.8068C21.1675 69.8068 24.9541 68.8533 24.9541 67.3048H35.6517C35.2183 71.8989 23.7786 73 18.7887 73C8.45175 73 -0.401062 71.6998 0.0289216 64.8261C0.334072 59.9181 7.19994 56.4743 20.8658 56.6874C28.4807 56.8093 35.8008 58.4094 35.8285 62.1296H25.0512ZM132.197 62.1296C131.673 60.4054 129.575 59.9462 127.231 59.7986C119.655 59.3254 118.313 63.1487 118.313 64.7629C118.313 67.5226 119.506 69.8068 126.947 69.8068C128.32 69.8068 132.103 68.8533 132.103 67.3048H142.801C142.367 71.8989 130.931 73 125.938 73C115.601 73 106.752 71.6998 107.178 64.8261C107.483 59.9181 114.353 56.4743 128.018 56.6874C135.633 56.8093 142.95 58.4094 142.981 62.1296H132.197ZM37.7427 57.0178H51.6305L63.4793 68.2325H63.5729V57.0178H72.4743V72.59H59.1691L46.7377 61.3729H46.644V72.59H37.7427V57.0178ZM75.2241 57.0178H92.0906C100.198 57.0178 104.966 58.5452 104.966 60.8552C104.966 62.2187 102.968 63.9031 98.5195 64.3998V64.4443C103.877 64.6598 105.854 66.9463 105.854 68.3168C105.854 71.0625 101.207 72.59 92.1391 72.59H75.2241V57.0178ZM84.9854 63.0667H87.7838C92.0906 63.0667 94.3757 62.8395 94.3757 61.633C94.3757 60.3374 92.472 59.9087 88.5952 59.9087H84.982L84.9854 63.0667ZM84.9854 69.3242H87.7838C92.9748 69.3242 94.8785 68.9564 94.8785 67.7499C94.8785 66.4544 92.4755 66.0233 88.5987 66.0233H84.9854V69.3242Z" fill="black"/>
<path d="M43.4436 20.5131L62.8171 50.444L22.8494 31.9551C12.8211 27.4711 14.8531 19.7822 20.4117 16.3946C28.2693 11.9105 39.3795 13.4661 43.4436 20.5131Z" fill="#D9782D"/>
<path d="M69.9951 13.4661L62.9523 46.9651L42.9026 15.1154C38.5681 7.15242 48.319 1.93512 54.8243 1.84376C62.2762 1.29321 71.6214 5.13766 69.9951 13.4661Z" fill="#B01842"/>
<path d="M100.479 15.024L80.5643 46.9674L74.1978 18.1352C73.6534 13.7425 77.7209 13.6512 79.212 12.8265C78.9415 12.1846 76.9095 12.1846 76.9095 12.1846H73.1159C72.7102 4.67846 81.3792 1.38456 88.4254 1.75002C96.0091 1.9351 104.543 7.88334 100.479 15.024Z" fill="#543B92"/>
<path d="M120.802 31.7723L80.8383 50.355L99.6674 20.7895C105.358 11.4537 118.635 13.2834 123.375 16.8537C128.521 20.3304 130.012 27.3797 120.802 31.7723Z" fill="#397DB7"/>
<path d="M124.998 53.6489H78.8028L116.329 35.9823C125.543 31.8637 135.297 35.6168 137.87 41.0168C140.582 47.0588 134.482 53.6489 124.998 53.6489Z" fill="#6CB35D"/>
<path d="M5.37264 40.6513C8.89573 34.4267 18.6501 32.2292 27.3192 35.9822L64.8491 53.6489H19.3263C9.84239 53.6489 2.39396 47.7897 5.37264 40.6513Z" fill="#ECB73B"/>
</g>
<defs>
<clipPath id="clip0_29_785">
<rect width="143" height="73" fill="white"/>
</clipPath>
</defs>
</svg>
