<svg width="158" height="114" viewBox="0 0 158 114" fill="none" xmlns="http://www.w3.org/2000/svg">
<g clip-path="url(#clip0_29_745)">
<path fill-rule="evenodd" clip-rule="evenodd" d="M96.711 1.47849C84.8085 -0.492831 72.4411 -0.492831 60.5387 1.47849C56.0042 2.2295 53.1727 5.48863 54.2144 8.75797C55.256 12.0273 59.7762 14.0688 64.3106 13.3178C73.7308 11.7576 83.519 11.7576 92.939 13.3178C97.4734 14.0688 101.994 12.0273 103.035 8.75797C104.077 5.48863 101.245 2.2295 96.711 1.47849ZM40.3026 13.8878C43.2633 16.4754 42.754 20.3035 39.1651 22.4382C35.483 24.6282 32.1763 27.1271 29.3149 29.8818L29.2677 29.9271C26.3852 32.6486 23.9789 35.6159 22.1037 38.762C20.2667 41.8438 15.3124 43.2686 11.0379 41.9441C6.76345 40.6196 4.78746 37.0475 6.62445 33.9656C9.04128 29.9108 12.1408 26.0859 15.853 22.577C19.5119 19.0584 23.7385 15.8662 28.4436 13.0676C32.0325 10.933 37.3419 11.3002 40.3026 13.8878ZM129.918 13.1528C126.394 10.9623 121.075 11.2462 118.037 13.7869C114.999 16.3274 115.393 20.1627 118.917 22.3531C122.466 24.5593 125.645 27.0574 128.388 29.7967L128.523 29.927C131.405 32.6484 133.811 35.6159 135.685 38.762C137.523 41.8438 142.477 43.2686 146.751 41.9441C151.026 40.6196 153.002 37.0475 151.166 33.9656C148.758 29.927 145.674 26.1164 141.981 22.619C138.483 19.1371 134.434 15.9603 129.918 13.1528ZM2.46736 52.3942C4.04719 51.2552 6.1899 50.6152 8.42411 50.6152H148.826C151.06 50.6152 153.203 51.2552 154.782 52.3942C156.363 53.5333 157.25 55.0782 157.25 56.6891C157.25 71.7239 148.966 86.1431 134.221 96.7739C119.476 107.406 99.4776 113.378 78.625 113.378C57.7723 113.378 37.7738 107.406 23.0287 96.7739C8.28368 86.1431 0 71.724 0 56.6891C0 55.0782 0.887537 53.5333 2.46736 52.3942Z" fill="white"/>
</g>
<defs>
<clipPath id="clip0_29_745">
<rect width="157.25" height="113.378" fill="white"/>
</clipPath>
</defs>
</svg>
