<svg width="173" height="73" viewBox="0 0 173 73" fill="none" xmlns="http://www.w3.org/2000/svg">
<g clip-path="url(#clip0_29_776)">
<path d="M0 0.0174255H172.125V72.9835H0V0.0174255Z" fill="#231F20"/>
<path d="M100.751 25.7466C98.5868 25.7466 96.8866 26.2542 95.1855 27.2674C95.1855 21.8589 95.1855 16.9581 95.3408 15.2685L84.9798 17.2958V18.31L86.0621 18.4788C87.4524 18.8165 87.9185 19.6608 88.2248 21.6901C88.5365 25.7466 88.3802 47.3812 88.2248 50.9312C91.0082 51.6076 93.9469 52.1152 96.8857 52.1152C105.081 52.1152 110.029 46.5369 110.029 37.7474C110.029 30.8183 106.009 25.7466 100.751 25.7466ZM97.1946 50.2548C96.5758 50.2548 95.8016 50.2548 95.3391 50.0869C95.1837 47.7209 95.0301 37.7474 95.1837 28.9589C96.1115 28.6202 96.7294 28.4513 97.5036 28.4513C100.908 28.4513 102.763 32.8456 102.763 38.253C102.762 45.0162 100.442 50.2548 97.1946 50.2548ZM46.0109 15.944H18.7951V17.4647L20.3417 17.6335C22.3509 17.9713 23.1251 19.3231 23.4332 22.5344C23.8984 28.6192 23.743 39.6068 23.4332 44.8444C23.1242 48.0567 22.3518 49.5784 20.3417 49.7453L18.7951 50.0849V51.4368H36.2686V50.0849L34.413 49.7453C32.403 49.5774 31.6297 48.0567 31.3207 44.8444C31.1653 42.6463 31.0108 39.0963 31.0108 34.7031L34.722 34.8719C37.0419 34.8719 38.1233 36.9002 38.5876 39.7728H39.9798V27.7759H38.5876C38.1224 30.6494 37.0419 32.6767 34.722 32.6767L31.0117 32.8466C31.0117 27.0995 31.1662 21.6911 31.3216 18.4798H36.733C40.9094 18.4798 43.0739 21.3524 44.6196 26.424L46.1662 25.9165L46.0109 15.944Z" fill="white"/>
<path d="M54.8253 25.4089C62.5575 25.4089 66.4231 31.156 66.4231 38.7615C66.4231 46.0294 62.0931 52.1161 54.361 52.1161C46.6297 52.1161 42.764 46.3681 42.764 38.7615C42.764 31.4937 47.0931 25.4089 54.8253 25.4089ZM54.361 27.0995C50.9588 27.0995 50.031 32.1701 50.031 38.7615C50.031 45.1841 51.5776 50.4236 54.6708 50.4236C58.2248 50.4236 59.1544 45.3529 59.1544 38.7615C59.1544 32.339 57.6096 27.0995 54.361 27.0995ZM112.038 38.9314C112.038 32.0013 116.058 25.4089 123.945 25.4089C130.438 25.4089 133.532 30.6494 133.532 37.5785H119.151C118.995 43.8322 121.779 48.3963 127.346 48.3963C129.821 48.3963 131.058 47.7219 132.605 46.5379L133.222 47.3822C131.676 49.7482 128.274 52.1161 123.945 52.1161C116.986 52.1152 112.038 46.7068 112.038 38.9314ZM119.151 35.7201L126.419 35.5503C126.419 32.1701 125.954 27.0995 123.326 27.0995C120.698 27.0995 119.304 31.8314 119.151 35.7201ZM151.936 26.7617C150.08 25.9155 147.607 25.4089 144.824 25.4089C139.103 25.4089 135.545 29.1268 135.545 33.522C135.545 37.9172 138.171 39.7757 141.887 41.1285C145.751 42.6483 146.834 43.8322 146.834 45.8605C146.834 47.8888 145.442 49.7472 142.968 49.7472C140.031 49.7472 137.865 47.8888 136.164 42.8171L135.081 43.1568L135.237 50.5935C137.092 51.4378 140.494 52.1152 143.432 52.1152C149.463 52.1152 153.33 48.7331 153.33 43.4945C153.33 39.9445 151.628 37.9172 147.608 36.2257C143.277 34.3673 141.732 33.1843 141.732 30.9862C141.732 28.789 143.126 27.2673 144.982 27.2673C147.763 27.2673 149.619 29.1268 151.013 33.6909L152.094 33.3531L151.936 26.7617ZM86.5246 26.0853C83.8966 24.3967 79.2568 25.24 76.7833 31.3258L76.9369 25.4099L66.5776 27.607V28.6212L67.6599 28.79C69.0529 28.9598 69.6699 29.8041 69.8253 32.0023C70.1343 36.0588 69.9798 43.1587 69.8253 46.7077C69.6699 48.7341 69.0529 49.7482 67.6599 49.918L66.5776 50.0879V51.4397H80.9579V50.0879L79.1023 49.918C77.5566 49.7482 77.0922 48.7341 76.9369 46.7077C76.6279 43.4955 76.6279 37.0729 76.7833 33.0164C77.5557 31.8324 80.9579 30.8193 84.0502 33.0164L86.5246 26.0853Z" fill="white"/>
</g>
<defs>
<clipPath id="clip0_29_776">
<rect width="172.125" height="73" fill="white"/>
</clipPath>
</defs>
</svg>
