<svg width="166" height="70" viewBox="0 0 166 70" fill="none" xmlns="http://www.w3.org/2000/svg">
<path d="M0.974823 0.00776672H165.972V70.0065H0.974823V0.00776672Z" fill="#C02519"/>
<path d="M53.2239 46.3403H56.5631V60.0067H53.6167L37.4117 49.4513V60.0067H34.1706V46.2847H37.0188L53.3221 56.9512V46.3403H53.2239ZM62.8487 46.3403H76.5984V48.0624H66.2861V52.229H76.2056V54.0068H66.2861V58.2845H76.8931V60.0067H62.8487V46.3403ZM113.526 46.3403H116.964L107.143 60.1178H106.357L98.4016 48.9513L90.3482 60.1178H89.5625L79.8394 46.3403H83.3751L90.0535 55.7845L96.732 46.3403H99.973L106.75 55.7845L113.526 46.3403ZM126.392 54.2846L123.74 53.3957C122.071 52.8401 120.892 52.2846 120.205 51.729C119.517 51.1735 119.124 50.5624 119.124 49.8402C119.124 48.7847 119.812 47.8958 121.089 47.2291C122.365 46.5625 124.133 46.2292 126.294 46.2292C128.356 46.2292 130.124 46.5625 131.892 47.1736V49.3958C130.124 48.4513 128.258 47.9513 126.294 47.9513C125.115 47.9513 124.231 48.118 123.544 48.3958C122.857 48.6735 122.464 49.0624 122.464 49.5069C122.464 49.8957 122.758 50.2846 123.249 50.6735C123.74 51.0068 124.624 51.3957 125.803 51.7846L128.455 52.6735C131.401 53.6734 132.874 54.9512 132.874 56.5067C132.874 57.6178 132.187 58.5067 130.91 59.1733C129.633 59.84 127.964 60.2289 125.803 60.2289C123.446 60.2289 121.187 59.84 119.223 59.0067V56.5067C121.089 57.84 123.249 58.5067 125.705 58.5067C126.785 58.5067 127.669 58.34 128.455 58.0067C129.142 57.6734 129.535 57.2289 129.535 56.729C129.633 55.8401 128.553 55.0068 126.392 54.2846ZM51.8489 27.6739H55.2863L45.4651 41.4515H44.6794L36.7242 30.285L28.769 41.4515H27.9833L18.2602 27.6739H21.7959L28.4743 37.1182L35.1528 27.6739H38.3938L45.1704 37.1182L51.8489 27.6739ZM68.9379 29.3406C66.1879 29.3406 63.929 29.8406 62.063 30.785C60.2952 31.785 59.4113 33.0072 59.4113 34.5627C59.4113 36.0627 60.2952 37.2849 62.063 38.2293C63.8308 39.2293 66.0897 39.6737 68.7414 39.6737C71.4914 39.6737 73.6521 39.1737 75.5181 38.1737C77.2859 37.1738 78.268 35.9516 78.268 34.4516C78.268 33.0072 77.3841 31.785 75.5181 30.785C73.7503 29.785 71.5896 29.3406 68.9379 29.3406ZM68.7414 27.4517C72.4735 27.4517 75.6163 28.1184 78.0716 29.4517C80.5269 30.785 81.8037 32.4516 81.8037 34.5071C81.8037 36.5071 80.5269 38.1737 78.0716 39.5071C75.5181 40.8404 72.3753 41.507 68.545 41.507C64.9112 41.507 61.8666 40.8404 59.4113 39.5071C56.9559 38.1737 55.7774 36.5071 55.7774 34.5071C55.7774 32.4516 56.9559 30.785 59.4113 29.4517C61.9648 28.1184 65.0094 27.4517 68.7414 27.4517ZM90.3482 29.3406H89.2678V33.6738H90.5446C92.3124 33.6738 93.491 33.5627 94.1785 33.3961C94.8659 33.2294 95.357 32.9516 95.7499 32.6183C96.1427 32.285 96.3391 31.8961 96.3391 31.4517C96.3391 31.0072 96.1427 30.6183 95.7499 30.285C95.357 29.9517 94.7677 29.6739 94.0803 29.5628C93.2946 29.3961 92.116 29.3406 90.3482 29.3406ZM85.9286 41.3403V27.6184H92.0178C94.4731 27.6184 96.4374 27.9517 97.8123 28.6739C99.2855 29.3406 99.973 30.285 99.973 31.4517C99.973 32.2294 99.5801 32.9516 98.8927 33.5072C98.2052 34.0627 97.2231 34.5071 95.8481 34.7849C96.6338 35.0627 97.4195 35.4516 98.107 35.9516C98.8927 36.4516 99.8748 37.3404 101.25 38.5626C102.134 39.3404 102.723 39.9515 103.312 40.3404L104.589 41.3403H100.464L99.3837 40.4515C99.3837 40.3959 99.2855 40.3404 99.1873 40.2848L98.4998 39.7293L97.4195 38.7293L96.2409 37.6737C95.5534 37.1182 94.866 36.6738 94.2767 36.3404C93.6874 36.0071 93.0981 35.7849 92.7053 35.6182C92.2142 35.4516 91.4285 35.396 90.25 35.396H89.3661V41.3403H85.9286ZM107.928 27.6739H111.366V39.6182H122.267V41.3959H107.928V27.6739ZM134.249 29.3961H129.928V39.5626H134.347C136.115 39.5626 137.392 39.507 138.374 39.3404C139.356 39.2293 140.142 39.0626 140.731 38.8404C141.419 38.6182 141.91 38.396 142.499 38.0626C144.169 37.0627 145.053 35.8404 145.053 34.3405C145.053 32.8961 144.169 31.6739 142.401 30.7294C141.713 30.3961 141.026 30.1183 140.142 29.8961C139.258 29.6739 138.472 29.5072 137.785 29.4517C137.097 29.4517 135.919 29.3961 134.249 29.3961ZM126.49 41.3403V27.6739H134.642C137.981 27.6739 140.535 27.9517 142.499 28.5072C144.463 29.0628 145.936 29.8961 147.115 30.9517C148.294 32.0628 148.785 33.2294 148.785 34.5071C148.785 35.396 148.49 36.2849 147.802 37.1182C147.213 37.9515 146.329 38.6737 145.151 39.3404C143.972 40.007 142.597 40.507 141.026 40.8404C140.142 41.0626 139.258 41.1737 138.472 41.2292C137.687 41.2848 136.213 41.3403 134.151 41.3403H126.49ZM86.7143 17.1186C86.7143 17.3963 86.5179 17.7297 86.125 17.9519C85.634 18.1741 84.8483 18.3408 83.5715 18.3408H80.9198V15.8964H83.4733C84.6519 15.8964 85.5358 16.0075 86.0268 16.2297C86.4197 16.5075 86.7143 16.7852 86.7143 17.1186ZM84.5536 14.2298C85.0447 14.0075 85.3393 13.7298 85.3393 13.2853C85.3393 13.0075 85.1429 12.7298 84.8483 12.5631C84.4554 12.3965 83.8662 12.2298 82.7858 12.2298H80.9198V14.5075H82.1965C83.1787 14.5631 84.0626 14.452 84.5536 14.2298Z" fill="white"/>
<path d="M89.5625 17.3408C89.5625 16.2297 88.2857 15.3964 86.125 15.0631C86.7143 14.8964 87.1072 14.6742 87.5 14.452C87.8929 14.1186 88.1875 13.7298 88.1875 13.2298C88.1875 12.6742 87.7947 12.0631 86.9107 11.6187C86.0268 11.1743 84.7501 10.8965 82.9822 10.8965H78.0716V19.7852H83.8661C85.9286 19.7852 87.4018 19.4519 88.2857 19.0074C89.1696 18.5075 89.5625 17.8964 89.5625 17.3408ZM95.0624 21.4518H71.8842V9.11873H95.0624V21.4518ZM57.8398 14.2298C58.3309 14.0075 58.6255 13.7298 58.6255 13.2853C58.6255 13.0076 58.4291 12.7298 58.1345 12.5631C57.7416 12.3965 57.1524 12.2298 56.072 12.2298H54.206V14.5075H55.4827C56.5631 14.5631 57.3488 14.452 57.8398 14.2298ZM59.313 16.2853C58.822 16.063 57.9381 15.9519 56.7595 15.9519H54.206V18.3408H56.8577C58.1345 18.3408 59.0184 18.1741 59.4112 17.9519C59.9023 17.7297 60.0005 17.4519 60.0005 17.1186C60.0005 16.7853 59.8041 16.5075 59.313 16.2853Z" fill="white"/>
<path d="M62.9469 17.3408C62.9469 16.2297 61.6702 15.3964 59.5095 15.0631C60.0988 14.8964 60.4916 14.6742 60.8845 14.452C61.2773 14.1186 61.5719 13.7298 61.5719 13.2298C61.5719 12.6742 61.1791 12.0631 60.2952 11.6187C59.4113 11.1743 58.1345 10.8965 56.3667 10.8965H51.456V19.7852H57.2506C59.3131 19.7852 60.7862 19.4519 61.6702 19.0074C62.5541 18.5075 62.9469 17.8964 62.9469 17.3408ZM68.4468 21.4518H45.2687V9.11873H68.4468V21.4518ZM117.16 17.3964L116.767 17.5075C115 18.1186 113.035 18.4519 111.267 18.4519C107.437 18.4519 104.982 17.1741 104.982 15.3408C104.982 13.5075 107.634 12.1742 111.169 12.1742C113.035 12.1742 114.607 12.452 116.571 13.0631L116.964 13.1742V11.5076L116.767 11.452C114.508 10.952 112.839 10.7298 111.169 10.7298C108.517 10.7298 106.259 11.2298 104.687 12.0631C103.018 12.8965 102.134 14.0631 102.134 15.3964C102.134 16.3408 102.821 17.4519 104.294 18.2852C105.768 19.1741 108.026 19.7852 111.071 19.7852C113.625 19.7852 115.392 19.4519 117.062 19.0074L117.16 18.9519V17.3964ZM121.678 21.4518H98.4998V9.11873H121.678V21.4518Z" fill="white"/>
</svg>
