<svg width="146" height="113" viewBox="0 0 146 113" fill="none" xmlns="http://www.w3.org/2000/svg">
<g clip-path="url(#clip0_29_748)">
<path fill-rule="evenodd" clip-rule="evenodd" d="M72.7815 0.0182495C70.3878 0.0182495 68.0197 0.398543 65.8241 1.13552L6.43158 22.5587L6.28885 22.6122C4.46724 23.3224 2.93641 24.4095 1.86684 25.7525C0.797281 27.0955 0.230965 28.6417 0.230965 30.2187C0.230965 31.7958 0.797281 33.3419 1.86684 34.6849C2.9364 36.0279 4.46723 37.115 6.28885 37.8253L6.44518 37.8837L65.7093 59.1026L65.8241 59.1412C68.0197 59.8781 70.3878 60.2585 72.7815 60.2585C75.1751 60.2585 77.5441 59.8795 79.7397 59.1425L139.131 37.7181L139.275 37.6645C141.096 36.9543 142.627 35.8672 143.696 34.5242C144.765 33.1812 145.332 31.6351 145.332 30.058C145.332 28.4809 144.765 26.9348 143.696 25.5918C142.627 24.2488 141.096 23.1617 139.275 22.4514L139.118 22.393L79.8537 1.17407L79.7389 1.13552C77.5433 0.398543 75.1751 0.0182495 72.7815 0.0182495ZM144.847 55.4246C146.649 58.4483 144.939 62.0286 141.027 63.4215L80.0432 85.1373L80.0166 85.1469C77.6982 85.9643 75.1798 86.387 72.6315 86.387C70.0834 86.387 67.5649 85.9643 65.2465 85.1461L65.2067 85.1324L4.52234 63.4168C0.614091 62.0183 -1.08747 58.4354 0.721776 55.4144C2.53103 52.3934 7.16597 51.078 11.0742 52.4766L71.7316 74.1825C72.0147 74.2806 72.3213 74.3313 72.6315 74.3313C72.9433 74.3313 73.2516 74.2801 73.5358 74.181L134.502 52.4718C138.414 51.079 143.046 52.401 144.847 55.4246ZM141.027 89.5424C144.939 88.1496 146.649 84.569 144.847 81.5455C143.046 78.5215 138.414 77.1995 134.502 78.5923L73.5443 100.298C73.2601 100.397 72.9433 100.452 72.6315 100.452C72.3213 100.452 72.0147 100.401 71.7316 100.303L11.0742 78.5971C7.16597 77.1985 2.53102 78.5139 0.721776 81.535C-1.08747 84.5562 0.614092 88.1391 4.52234 89.5376L65.2067 111.253L65.2465 111.267C67.5649 112.085 70.0834 112.508 72.6315 112.508C75.1798 112.508 77.6982 112.085 80.0166 111.267L80.0432 111.258L141.027 89.5424Z" fill="white"/>
</g>
<defs>
<clipPath id="clip0_29_748">
<rect width="145.562" height="112.519" fill="white"/>
</clipPath>
</defs>
</svg>
