<svg width="174" height="116" viewBox="0 0 174 116" fill="none" xmlns="http://www.w3.org/2000/svg">
<path fill-rule="evenodd" clip-rule="evenodd" d="M54.5632 107.353C58.7193 108.679 63.2651 109.367 67.8692 109.367H134.003C149.239 109.367 162.205 101.938 164.558 91.8596L172.301 58.7024C174.646 48.6557 163.044 39.5788 147.856 39.5788H107.235V20.0518C107.235 12.6174 98.2333 6.5907 87.1295 6.5907C79.8519 6.5907 73.1424 9.22385 69.587 13.4754L43.8892 44.204C42.3383 46.0585 41.5239 48.1483 41.5239 50.2736V95.3507C41.5239 100.14 45.6374 104.504 52.0961 106.565L54.5632 107.353ZM12.9103 45.7217C9.64132 45.7217 6.5063 46.5911 4.19483 48.1387C1.88335 49.6864 0.584778 51.7853 0.584778 53.974L0.584784 96.3189C0.584784 98.508 1.88335 100.607 4.19483 102.155C6.50628 103.702 9.64131 104.572 12.9103 104.572L19.0531 104.57C22.4681 104.569 25.2356 102.715 25.2356 100.429V49.8612C25.2356 48.7626 24.5836 47.709 23.4231 46.9323C22.2625 46.1556 20.6886 45.7195 19.0478 45.72L12.9103 45.7217Z" fill="white"/>
</svg>
