<svg width="194" height="121" viewBox="0 0 194 121" fill="none" xmlns="http://www.w3.org/2000/svg">
<g clip-path="url(#clip0_29_742)">
<path fill-rule="evenodd" clip-rule="evenodd" d="M0 25.7678C0 21.0241 6.18406 17.1785 13.8125 17.1785H179.562C187.191 17.1785 193.375 21.0241 193.375 25.7678V94.4818C193.375 99.2256 187.191 103.071 179.562 103.071H13.8125C6.18408 103.071 0 99.2256 0 94.4818V25.7678ZM82.875 47.2409C82.875 54.3565 73.5989 60.1248 62.1562 60.1248C50.7136 60.1248 41.4375 54.3565 41.4375 47.2409C41.4375 40.1253 50.7136 34.357 62.1562 34.357C73.5989 34.357 82.875 40.1253 82.875 47.2409ZM21.3631 79.899C31.4657 73.0255 46.001 68.714 62.1558 68.714C78.3105 68.714 92.8458 73.0255 102.949 79.899C106.537 82.3405 103.36 85.8925 98.0407 85.8925H26.2708C20.9518 85.8925 17.7746 82.3405 21.3631 79.899ZM122.586 47.2412C122.586 44.2763 126.451 41.8729 131.218 41.8729H158.844C163.61 41.8729 167.477 44.2763 167.477 47.2412C167.477 50.206 163.61 52.6094 158.844 52.6094H131.218C126.451 52.6094 122.586 50.206 122.586 47.2412ZM131.218 67.6406C126.451 67.6406 122.586 70.0441 122.586 73.0089C122.586 75.9738 126.451 78.3772 131.218 78.3772H158.844C163.61 78.3772 167.477 75.9738 167.477 73.0089C167.477 70.0441 163.61 67.6406 158.844 67.6406H131.218Z" fill="white"/>
</g>
<defs>
<clipPath id="clip0_29_742">
<rect width="193.375" height="120.25" fill="white"/>
</clipPath>
</defs>
</svg>
